<svg width="10" height="8" fill="none" xmlns="http://www.w3.org/2000/svg"><path d="m5 7.887-.605-.547A80.957 80.957 0 0 1 2.89 5.953c-.313-.3-.664-.67-1.055-1.113-.378-.443-.638-.84-.781-1.192A3.021 3.021 0 0 1 .84 2.535c0-.638.215-1.178.644-1.62C1.927.47 2.474.25 3.125.25c.755 0 1.38.293 1.875.879C5.495.543 6.12.25 6.875.25c.651 0 1.191.221 1.621.664.443.443.664.983.664 1.621 0 .508-.17 1.035-.508 1.582A7.84 7.84 0 0 1 7.54 5.543c-.39.404-1.035 1.01-1.934 1.816L5 7.887z" fill="url(#a)"/><defs><linearGradient id="a" x1="5" y1="0" x2="5" y2="8" gradientUnits="userSpaceOnUse"><stop stop-color="#BC9CFF"/><stop offset="1" stop-color="#8BA4F9"/></linearGradient></defs></svg>